<?xml version="1.0" standalone="no"?>
<!DOCTYPE svg PUBLIC "-//W3C//DTD SVG 20010904//EN"
 "http://www.w3.org/TR/2001/REC-SVG-20010904/DTD/svg10.dtd">
<svg version="1.0" xmlns="http://www.w3.org/2000/svg"
 width="342.000000pt" height="147.000000pt" viewBox="0 0 342.000000 147.000000"
 preserveAspectRatio="xMidYMid meet">

<g transform="translate(0.000000,147.000000) scale(0.100000,-0.100000)"
fill="#000000" stroke="none">
<path d="M2686 1398 c-67 -55 -97 -125 -97 -224 0 -65 10 -95 50 -157 32 -49
72 -72 266 -148 145 -57 167 -63 235 -63 58 0 85 5 118 22 23 12 42 24 42 25
0 2 -24 3 -52 3 -144 0 -274 144 -298 329 -8 63 -4 76 39 125 16 18 19 26 9
28 -7 2 -27 10 -45 18 -17 8 -40 14 -50 14 -11 0 -28 7 -39 15 -10 8 -34 15
-52 15 -20 0 -31 4 -27 10 4 6 12 7 18 4 7 -4 8 -3 4 1 -4 5 -26 10 -47 10
-30 1 -49 -6 -74 -27z"/>
<path d="M1550 1365 c-40 -29 -76 -78 -90 -121 -10 -29 -8 -38 15 -72 31 -47
55 -121 55 -171 0 -57 9 -77 43 -93 66 -31 343 -137 377 -143 19 -4 46 -17 59
-29 28 -25 76 -118 86 -166 4 -19 18 -46 30 -60 43 -45 65 -109 65 -187 0 -70
1 -72 33 -91 28 -18 162 -73 326 -134 89 -34 208 -24 263 22 l23 19 -29 -5
c-46 -8 -134 15 -151 39 -8 12 -15 18 -15 15 0 -12 -44 35 -72 77 -15 22 -30
54 -33 70 -24 107 -50 156 -141 265 -122 148 -198 204 -291 217 -110 14 -203
86 -256 196 -59 121 -62 204 -10 255 18 18 12 23 -26 24 -17 1 -31 5 -31 10 0
5 -6 8 -13 6 -7 -2 -29 4 -48 14 -19 9 -57 27 -86 41 l-51 25 -32 -23z"/>
<path d="M802 1340 c-51 -36 -100 -119 -107 -180 -22 -191 -47 -259 -131 -350
-54 -58 -142 -112 -204 -125 l-35 -8 35 -15 c22 -10 80 -17 160 -20 69 -2 131
-9 138 -15 7 -5 16 -7 19 -3 4 4 1 11 -7 16 -12 8 -10 10 8 10 20 0 27 -10 23
-32 0 -5 6 -8 15 -8 8 0 12 4 9 10 -3 6 1 7 10 4 17 -7 42 7 108 63 75 63 91
75 122 88 50 22 102 78 116 124 10 35 10 54 0 99 -33 151 -35 176 -18 212 22
43 21 53 -3 45 -11 -3 -20 -2 -20 3 0 5 -21 17 -47 26 -27 10 -60 24 -76 32
-16 9 -36 12 -48 9 -14 -5 -19 -3 -15 3 3 6 0 13 -6 15 -10 4 -9 8 2 16 8 6
10 11 4 11 -6 0 -30 -13 -52 -30z"/>
<path d="M1215 775 c-56 -14 -148 -59 -139 -68 3 -3 -4 -8 -15 -12 -12 -3 -21
-10 -21 -15 0 -5 26 2 57 16 31 14 78 28 104 31 46 5 48 5 78 -37 43 -60 71
-140 77 -228 8 -106 29 -168 76 -218 35 -38 62 -52 221 -116 174 -70 186 -73
262 -73 90 1 138 19 190 75 25 27 26 31 8 21 -13 -6 -23 -16 -23 -21 0 -6 -21
-10 -46 -10 -49 0 -132 34 -141 57 -3 7 -11 13 -19 13 -8 0 -14 4 -14 8 0 5
-8 17 -19 28 -10 11 -33 61 -51 110 -41 112 -93 186 -228 322 -92 92 -114 109
-155 120 -59 15 -136 14 -202 -3z"/>
<path d="M2390 737 c0 -17 79 -50 147 -61 43 -8 79 -13 80 -12 2 1 -33 17 -77
35 -76 31 -150 50 -150 38z"/>
<path d="M1655 700 c27 -30 108 -68 169 -79 67 -12 113 -14 103 -5 -13 13
-202 85 -245 93 -40 8 -42 8 -27 -9z"/>
<path d="M163 636 c-62 -31 -103 -73 -132 -136 -33 -72 -35 -165 -5 -231 38
-81 81 -112 248 -178 257 -101 301 -107 403 -59 43 20 76 50 37 33 -31 -14
-86 -8 -135 13 -43 19 -159 132 -159 155 0 6 -6 18 -13 26 -18 23 -35 77 -42
142 -6 50 -4 58 19 86 14 17 22 33 19 37 -4 4 0 4 9 1 9 -4 19 -2 22 3 3 6
-21 18 -54 28 -33 10 -60 21 -60 26 0 4 -8 8 -17 8 -10 0 -33 9 -51 20 -18 11
-40 20 -48 20 -14 0 -14 3 -4 15 15 18 16 18 -37 -9z"/>
<path d="M618 623 c7 -3 16 -2 19 1 4 3 -2 6 -13 5 -11 0 -14 -3 -6 -6z"/>
</g>
</svg>
