<?xml version="1.0" standalone="no"?>
<!DOCTYPE svg PUBLIC "-//W3C//DTD SVG 20010904//EN"
 "http://www.w3.org/TR/2001/REC-SVG-20010904/DTD/svg10.dtd">
<svg version="1.0" xmlns="http://www.w3.org/2000/svg"
 width="753.000000pt" height="869.000000pt" viewBox="0 0 753.000000 869.000000"
 preserveAspectRatio="xMidYMid meet">

<g transform="translate(0.000000,869.000000) scale(0.100000,-0.100000)"
fill="#000000" stroke="none">
<path d="M0 4345 l0 -4345 3765 0 3765 0 0 4345 0 4345 -3765 0 -3765 0 0
-4345z m5896 4179 c68 -42 107 -117 102 -196 -12 -168 -191 -261 -334 -172
-68 42 -107 117 -102 196 12 168 191 261 334 172z m832 4 c8 -8 12 -64 12
-188 0 -124 -4 -180 -12 -188 -17 -17 -519 -17 -536 0 -8 8 -12 64 -12 188 0
124 4 180 12 188 9 9 82 12 268 12 186 0 259 -3 268 -12z m-5673 -8 c15 -6 9
-9 -25 -9 -34 0 -40 3 -25 9 11 5 22 9 25 9 3 0 14 -4 25 -9z m35 -70 c0 -5
-15 -10 -32 -10 -27 0 -46 -13 -110 -77 -43 -43 -78 -72 -78 -65 0 22 31 75
69 119 34 39 39 41 94 42 32 1 57 -3 57 -9z m-50 -60 c0 -5 6 -10 14 -10 15 0
28 -24 19 -34 -3 -3 -16 -3 -28 0 -38 9 -37 -13 0 -35 42 -25 46 -54 9 -87
-22 -22 -27 -23 -40 -9 -9 8 -20 15 -25 15 -5 0 -9 8 -9 18 0 15 6 17 35 14
19 -2 35 -2 35 1 0 3 -16 14 -35 26 -41 24 -46 55 -12 88 24 24 37 29 37 13z
m1728 -702 l3 -98 29 0 c23 0 30 -4 30 -20 0 -18 -7 -20 -81 -20 -71 0 -80 2
-77 18 2 10 14 18 31 20 27 3 27 4 27 83 0 78 0 79 -25 79 -19 0 -25 5 -25 21
0 18 5 20 43 17 l42 -3 3 -97z m1692 -18 c0 -113 -1 -120 -20 -120 -11 0 -20
5 -20 12 0 9 -3 9 -12 0 -7 -7 -27 -12 -44 -12 -65 0 -97 88 -53 145 18 22 28
26 60 23 l39 -4 0 38 c0 34 3 38 25 38 l25 0 0 -120z m143 108 c7 -22 -4 -38
-28 -38 -13 0 -25 6 -28 13 -7 21 4 37 28 37 13 0 25 -6 28 -12z m-2307 -70
c8 -78 9 -77 28 35 5 27 12 37 26 37 21 0 25 -11 36 -85 7 -47 8 -48 15 -20 4
17 7 47 8 68 1 32 4 37 24 37 l23 0 -15 -112 c-16 -110 -17 -113 -43 -116 -25
-3 -26 -1 -33 57 -4 34 -10 59 -15 56 -4 -3 -11 -30 -15 -60 -6 -49 -9 -55
-30 -55 -26 0 -24 -4 -45 130 -14 91 -13 100 9 100 17 0 21 -10 27 -72z m2914
-3 c0 -67 -2 -75 -19 -75 -25 0 -31 19 -31 91 0 56 1 59 25 59 24 0 25 -2 25
-75z m-2602 -2 c12 -10 24 -30 28 -45 l6 -28 -66 0 c-36 0 -66 -4 -66 -8 0
-26 61 -44 75 -22 3 6 15 10 26 10 24 0 24 -15 -1 -40 -49 -49 -140 -7 -140
65 0 71 86 112 138 68z m410 -3 c12 -12 22 -25 22 -30 0 -13 -37 -13 -45 0 -3
6 -19 10 -35 10 -23 0 -31 -6 -36 -24 -10 -41 4 -66 36 -66 16 0 32 5 35 10 7
11 45 14 45 3 0 -4 -10 -17 -22 -30 -28 -30 -83 -31 -115 -1 -31 29 -32 92 -1
125 28 30 85 31 116 3z m202 0 c27 -27 35 -65 20 -101 -35 -84 -164 -56 -164
36 0 73 94 115 144 65z m146 9 c4 -6 11 -6 19 1 8 6 24 10 37 8 22 -3 23 -8
26 -85 3 -78 2 -83 -18 -83 -18 0 -20 6 -20 65 0 51 -3 65 -15 65 -12 0 -15
-14 -15 -65 0 -58 -2 -65 -20 -65 -18 0 -20 7 -20 65 0 51 -3 65 -15 65 -12 0
-15 -14 -15 -65 0 -58 -2 -65 -20 -65 -18 0 -20 7 -20 83 l0 84 45 1 c25 0 48
-4 51 -9z m263 -15 c12 -15 21 -35 21 -45 0 -17 -8 -19 -65 -19 -63 0 -65 -1
-55 -20 12 -22 66 -28 72 -9 2 6 15 9 28 7 l25 -3 -27 -27 c-45 -47 -114 -36
-138 21 -25 62 14 121 79 121 31 0 44 -6 60 -26z m611 7 c0 -10 -18 -39 -40
-64 l-41 -46 43 -3 c31 -2 44 -8 46 -20 3 -16 -6 -18 -72 -18 -92 0 -96 9 -35
78 l41 47 -41 3 c-33 3 -41 7 -41 23 0 17 7 19 70 19 62 0 70 -2 70 -19z m348
7 c7 -7 12 -36 12 -65 0 -50 1 -53 25 -53 18 0 25 -5 25 -20 0 -18 -7 -20 -76
-20 -66 0 -75 2 -72 18 2 10 14 18 31 20 25 3 27 7 27 48 0 40 -2 44 -25 44
-18 0 -25 5 -25 20 0 16 7 20 33 20 18 0 38 -5 45 -12z m282 -8 c0 -11 -6 -20
-14 -20 -9 0 -12 -7 -9 -18 7 -28 -28 -64 -65 -67 -51 -4 -50 -15 1 -15 49 0
77 -18 77 -50 0 -48 -111 -69 -150 -30 -12 12 -18 26 -13 33 4 6 6 24 5 39 -1
14 2 29 7 33 5 3 7 21 4 40 -9 56 15 75 94 75 56 0 63 -2 63 -20z m70 10 c0
-7 6 -7 19 0 29 15 62 12 83 -7 14 -13 18 -31 18 -85 0 -61 -2 -68 -20 -68
-16 0 -19 8 -22 63 -3 62 -3 62 -33 62 -30 0 -30 0 -33 -62 -3 -59 -4 -63 -27
-63 -25 0 -25 1 -25 85 0 78 2 85 20 85 11 0 20 -5 20 -10z m275 -130 c0 -30
-35 -40 -55 -15 -10 12 -10 18 0 30 20 25 55 15 55 -15z m-1425 10 c0 -5 -8
-25 -17 -45 -12 -25 -23 -35 -39 -35 -23 0 -23 0 -7 45 12 37 19 45 39 45 13
0 24 -4 24 -10z m-988 -735 l22 -46 23 46 c16 30 30 45 43 45 26 0 26 -1 -10
-63 -21 -38 -30 -67 -30 -100 0 -40 -3 -47 -20 -47 -16 0 -20 7 -20 35 0 21
-15 65 -35 105 -33 65 -34 70 -15 70 14 0 27 -14 42 -45z m978 25 c11 -11 20
-24 20 -30 0 -16 -31 -12 -51 6 -10 9 -25 14 -34 11 -29 -12 -15 -37 29 -56
57 -25 73 -66 39 -103 -35 -38 -133 -11 -133 37 0 22 29 18 49 -6 12 -16 23
-20 39 -15 37 12 27 42 -20 61 -24 9 -46 22 -50 28 -14 22 -8 66 10 76 29 17
80 13 102 -9z m740 -84 l0 -104 -55 -1 c-68 0 -95 21 -95 74 0 48 31 78 76 73
33 -4 34 -3 34 29 0 26 4 33 20 33 19 0 20 -7 20 -104z m125 79 c0 -23 -34
-33 -45 -14 -13 20 1 40 24 37 13 -2 21 -10 21 -23z m-1585 -55 c12 -12 20
-33 20 -55 0 -46 -29 -75 -75 -75 -43 0 -75 32 -75 75 0 66 84 101 130 55z
m92 -31 c6 -96 68 -89 68 8 0 36 3 43 20 43 18 0 20 -7 20 -74 l0 -74 -62 1
c-56 2 -64 5 -75 27 -7 14 -13 46 -13 73 0 40 3 47 19 47 17 0 20 -8 23 -51z
m288 35 c0 -8 -10 -14 -23 -14 -32 0 -47 -18 -47 -57 0 -29 3 -33 25 -33 16 0
25 -6 25 -15 0 -12 -13 -15 -60 -15 -47 0 -60 3 -60 15 0 8 7 15 15 15 11 0
15 12 15 45 0 33 -4 45 -15 45 -8 0 -15 6 -15 14 0 11 16 14 70 14 54 0 70 -3
70 -14z m525 -7 c39 -56 3 -132 -61 -125 -33 4 -34 3 -34 -29 0 -26 -4 -33
-20 -33 -19 0 -20 7 -20 104 l0 103 60 1 c50 1 62 -2 75 -21z m175 3 c11 -11
20 -29 20 -40 0 -18 -7 -20 -55 -20 -56 0 -67 -8 -40 -30 12 -10 21 -10 45 0
38 16 49 7 25 -20 -27 -30 -78 -27 -104 6 -12 15 -21 37 -21 49 0 12 9 34 21
49 26 33 79 36 109 6z m185 -3 c9 -13 15 -43 15 -74 0 -46 -3 -53 -20 -53 -17
0 -20 7 -20 48 0 44 -12 72 -31 72 -21 0 -39 -35 -39 -76 0 -32 -4 -44 -15
-44 -12 0 -15 15 -15 73 l0 73 55 2 c46 1 57 -2 70 -21z m315 4 c5 -11 10 -38
10 -60 0 -34 3 -41 20 -41 11 0 20 -7 20 -15 0 -12 -14 -15 -65 -15 -51 0 -65
3 -65 15 0 9 10 15 26 15 23 0 25 3 22 43 -2 35 -7 43 -25 45 -13 2 -23 10
-23 18 0 23 67 18 80 -5z m225 -4 c9 -13 15 -43 15 -74 0 -46 -3 -53 -20 -53
-17 0 -20 7 -20 48 0 44 -12 72 -31 72 -21 0 -39 -35 -39 -76 0 -32 -4 -44
-15 -44 -12 0 -15 15 -15 73 l0 73 55 2 c46 1 57 -2 70 -21z m195 8 c0 -8 -4
-15 -10 -15 -5 0 -10 -10 -10 -23 0 -32 -18 -47 -57 -47 -18 0 -33 -4 -33 -10
0 -5 18 -10 39 -10 36 0 71 -19 71 -38 0 -4 -7 -18 -16 -30 -11 -16 -25 -22
-55 -22 -66 0 -80 13 -73 68 3 26 5 61 5 79 -1 47 21 63 85 63 41 0 54 -4 54
-15z m1300 -7 c0 -17 -151 -168 -167 -168 -27 0 -10 28 64 102 74 74 103 93
103 66z m-3983 -670 c-2 -35 -3 -7 -3 62 0 69 1 97 3 63 2 -35 2 -91 0 -125z
m1390 0 c-2 -35 -3 -7 -3 62 0 69 1 97 3 63 2 -35 2 -91 0 -125z m1380 0 c-2
-35 -3 -7 -3 62 0 69 1 97 3 63 2 -35 2 -91 0 -125z m-3777 113 c5 -11 10 -22
10 -25 0 -12 -23 -5 -35 11 -21 28 -45 9 -45 -37 0 -46 24 -65 45 -37 12 16
35 23 35 11 0 -3 -5 -14 -10 -25 -13 -24 -57 -25 -82 -2 -23 20 -24 80 -1 105
22 24 69 24 83 -1z m1437 7 c12 -19 12 -101 1 -115 -6 -7 -28 -13 -49 -13
l-39 0 0 70 0 70 39 0 c22 0 43 -6 48 -12z m253 -58 l0 -70 -38 0 c-45 0 -62
14 -62 50 0 32 17 50 47 50 16 0 23 6 23 20 0 11 7 20 15 20 12 0 15 -14 15
-70z m1200 55 c18 -21 4 -32 -21 -17 -19 12 -39 9 -39 -7 0 -4 16 -15 35 -24
37 -18 46 -46 21 -66 -20 -17 -67 -10 -80 11 -15 25 1 34 23 14 19 -17 41 -15
41 4 0 4 -16 17 -35 29 -37 21 -43 39 -23 59 17 17 63 15 78 -3z m1152 -10 c8
-19 8 -29 -4 -47 -14 -21 -14 -26 0 -46 22 -33 -6 -29 -35 6 l-22 27 -1 -27
c0 -18 -5 -28 -15 -28 -12 0 -15 14 -15 70 l0 70 40 0 c33 0 42 -4 52 -25z
m448 10 c0 -8 -6 -15 -14 -15 -17 0 -28 14 -19 24 12 12 33 6 33 -9z m240 0
c0 -8 -6 -15 -14 -15 -17 0 -28 14 -19 24 12 12 33 6 33 -9z m-4530 -10 c0 -8
9 -15 20 -15 11 0 20 -4 20 -10 0 -5 -9 -10 -20 -10 -16 0 -20 -7 -20 -30 0
-23 4 -30 20 -30 11 0 20 -5 20 -11 0 -6 -14 -9 -32 -7 -30 3 -33 7 -36 38 -2
19 -8 38 -14 41 -6 4 -3 15 8 28 22 25 34 27 34 6z m1800 0 c0 -8 9 -15 20
-15 11 0 20 -4 20 -10 0 -5 -9 -10 -20 -10 -15 0 -20 -7 -20 -26 0 -17 6 -28
20 -31 30 -8 24 -25 -7 -21 -24 3 -28 8 -31 41 -2 24 -8 37 -18 37 -8 0 -14 5
-14 10 0 6 7 10 15 10 8 0 15 7 15 15 0 8 5 15 10 15 6 0 10 -7 10 -15z m1330
0 c0 -8 9 -15 20 -15 11 0 20 -4 20 -10 0 -5 -9 -10 -20 -10 -16 0 -20 -7 -20
-30 0 -23 4 -30 20 -30 11 0 20 -4 20 -10 0 -5 -11 -10 -25 -10 -26 0 -45 25
-45 59 0 10 -5 21 -12 23 -8 3 -5 11 8 25 23 26 34 28 34 8z m-3212 -66 l3
-47 -43 2 c-39 1 -43 3 -43 26 0 20 6 26 28 28 15 2 27 8 27 13 0 7 -12 8 -32
3 -30 -6 -31 -5 -19 10 9 11 26 16 45 14 29 -3 31 -6 34 -49z m236 29 c23 -33
20 -38 -25 -38 -26 0 -38 -4 -34 -11 4 -6 19 -7 36 -4 37 8 39 -12 2 -21 -34
-9 -57 6 -61 40 -7 54 52 78 82 34z m136 12 c0 -5 -5 -10 -12 -10 -6 0 -8 -3
-5 -6 13 -13 -15 -44 -41 -45 -23 -1 -22 -3 8 -8 29 -5 35 -10 35 -31 0 -21
-5 -26 -33 -28 -34 -3 -66 13 -57 29 3 4 6 25 7 46 0 21 5 44 11 51 11 14 87
16 87 2z m104 -6 c48 -48 -25 -113 -76 -67 -22 20 -23 41 -1 65 20 22 56 23
77 2z m69 -16 l13 -32 13 32 c7 18 20 32 27 32 18 0 19 3 -16 -74 -17 -38 -36
-66 -45 -66 -12 0 -12 5 -4 23 8 17 6 33 -10 70 -17 39 -18 47 -6 47 8 0 21
-14 28 -32z m839 -5 c2 -26 8 -38 18 -38 10 0 16 12 18 38 2 24 8 37 18 37 10
0 14 -13 14 -50 l0 -50 -38 0 c-48 0 -62 14 -62 62 0 52 28 53 32 1z m302 10
c-8 -35 -13 -40 -44 -46 -21 -4 -19 -5 8 -6 37 -1 51 -23 31 -47 -8 -10 -25
-14 -48 -12 l-36 3 2 55 c4 76 7 80 53 80 39 0 40 -1 34 -27z m114 15 c7 -7
12 -20 12 -30 0 -14 -8 -18 -36 -18 -22 0 -33 -4 -29 -11 4 -6 20 -7 38 -3 28
6 30 5 18 -10 -21 -26 -69 -21 -83 9 -17 37 3 75 40 75 15 0 33 -5 40 -12z
m1089 1 c16 -14 17 -61 1 -77 -7 -7 -22 -12 -35 -12 -16 0 -23 -6 -23 -20 0
-11 -7 -20 -15 -20 -12 0 -15 14 -15 68 l0 69 37 1 c20 1 42 -3 50 -9z m123
-8 c17 -33 12 -41 -26 -41 -20 0 -33 -4 -29 -10 3 -5 20 -6 38 -3 29 6 31 5
18 -10 -16 -20 -62 -22 -79 -5 -7 7 -12 24 -12 38 0 14 5 31 12 38 19 19 66
15 78 -7z m120 0 c15 -30 13 -81 -4 -81 -10 0 -16 13 -18 38 -2 25 -8 37 -18
37 -10 0 -16 -12 -18 -37 -2 -25 -8 -38 -18 -38 -10 0 -14 13 -14 50 l0 50 40
0 c29 0 42 -5 50 -19z m904 -3 c23 -33 20 -38 -25 -38 -26 0 -38 -4 -34 -11 4
-6 19 -7 36 -4 37 8 39 -12 2 -21 -34 -9 -57 6 -61 40 -7 54 52 78 82 34z
m134 -30 c2 -38 0 -48 -12 -48 -12 0 -16 11 -18 43 l-1 42 -4 -42 c-6 -59 -33
-60 -33 -2 0 24 -4 38 -10 34 -5 -3 -10 -22 -10 -41 0 -19 -4 -34 -10 -34 -5
0 -10 23 -10 50 l0 50 53 -2 52 -3 3 -47z m110 1 l3 -47 -43 2 c-39 1 -43 3
-43 26 0 20 6 26 28 28 15 2 27 8 27 13 0 7 -12 8 -32 3 -30 -6 -31 -5 -19 10
9 11 26 16 45 14 29 -3 31 -6 34 -49z m90 9 c2 -25 8 -38 18 -38 8 0 14 -4 14
-10 0 -5 -20 -10 -45 -10 -25 0 -45 5 -45 10 0 6 7 10 15 10 10 0 15 10 15 30
0 20 -5 30 -15 30 -8 0 -15 5 -15 11 0 6 12 9 28 7 23 -3 27 -8 30 -40z m150
-10 c4 -56 -15 -66 -20 -10 -2 25 -8 37 -18 37 -10 0 -16 -12 -18 -37 -2 -25
-8 -38 -18 -38 -10 0 -14 13 -14 49 l0 49 43 -2 42 -1 3 -47z m90 10 c2 -25 8
-38 18 -38 8 0 14 -4 14 -10 0 -5 -20 -10 -45 -10 -25 0 -45 5 -45 10 0 6 7
10 15 10 10 0 15 10 15 30 0 20 -5 30 -15 30 -8 0 -15 5 -15 11 0 6 12 9 28 7
23 -3 27 -8 30 -40z m150 -10 c4 -56 -15 -66 -20 -10 -2 25 -8 37 -18 37 -10
0 -16 -12 -18 -37 -2 -25 -8 -38 -18 -38 -10 0 -14 13 -14 49 l0 49 43 -2 42
-1 3 -47z m132 42 c0 -5 -5 -10 -12 -10 -6 0 -8 -3 -5 -6 13 -13 -15 -44 -41
-45 -23 -1 -22 -3 8 -8 29 -5 35 -10 35 -31 0 -21 -5 -26 -33 -28 -34 -3 -66
13 -57 29 3 4 6 25 7 46 0 21 5 44 11 51 11 14 87 16 87 2z m-3705 -476 c14
-9 25 -23 25 -30 0 -17 -12 -18 -28 -2 -9 9 -12 8 -12 -4 0 -9 11 -23 25 -32
14 -9 25 -23 25 -31 0 -13 -45 -55 -59 -55 -11 0 -51 40 -51 50 0 14 27 12 33
-2 3 -7 6 -3 6 10 1 12 -3 22 -9 22 -5 0 -14 10 -21 21 -9 18 -7 25 13 45 28
28 24 27 53 8z m1453 -4 c12 -12 22 -25 22 -30 0 -14 -27 -12 -33 3 -3 6 -6 2
-6 -9 -1 -14 7 -24 19 -27 29 -8 26 -51 -5 -71 -23 -15 -27 -15 -49 -1 -13 9
-27 23 -30 31 -7 17 15 19 32 2 9 -9 12 -8 12 8 0 10 -9 25 -20 32 -26 16 -25
46 3 65 29 21 29 21 55 -3z m1317 4 c14 -9 25 -23 25 -30 0 -17 -12 -18 -28
-2 -9 9 -12 8 -12 -5 0 -9 9 -21 20 -27 28 -15 25 -54 -5 -74 -23 -15 -27 -15
-50 0 -14 9 -25 23 -25 30 0 17 12 18 28 2 9 -9 12 -8 12 8 0 10 -9 25 -20 32
-11 7 -20 22 -20 33 0 12 8 23 20 26 11 3 20 9 20 14 0 13 7 11 35 -7z m-4195
-9 c18 -21 4 -32 -21 -17 -27 17 -49 0 -49 -38 0 -36 24 -57 45 -40 8 7 15 16
15 21 0 5 -7 9 -15 9 -8 0 -15 5 -15 10 0 6 14 10 30 10 28 0 30 -2 30 -39 l0
-40 -47 2 c-40 2 -50 6 -60 27 -14 27 -10 74 8 97 15 18 64 17 79 -2z m693 0
c1 -5 -6 -11 -15 -13 -11 -2 -18 3 -18 13 0 17 30 18 33 0z m847 -45 c0 -47 3
-60 15 -60 8 0 15 -4 15 -10 0 -5 -22 -10 -50 -10 -27 0 -50 5 -50 10 0 6 9
10 20 10 17 0 20 7 20 45 0 33 -4 45 -15 45 -18 0 -20 16 -2 23 40 17 47 9 47
-53z m150 50 c0 -5 -13 -10 -29 -10 -17 0 -33 -4 -36 -10 -3 -6 5 -10 19 -10
26 0 56 -23 56 -43 0 -49 -78 -78 -100 -37 -8 15 -8 20 3 20 7 0 18 -5 24 -11
16 -16 43 -3 43 20 0 28 -18 36 -46 20 -30 -16 -32 -13 -26 34 4 36 5 37 48
37 24 0 44 -4 44 -10z m114 -12 c32 -46 8 -118 -39 -118 -35 0 -55 26 -55 70
0 22 7 45 16 54 22 23 60 20 78 -6z m120 0 c32 -46 8 -118 -39 -118 -35 0 -55
26 -55 70 0 22 7 45 16 54 22 23 60 20 78 -6z m240 0 c32 -46 8 -118 -39 -118
-35 0 -55 26 -55 70 0 22 7 45 16 54 22 23 60 20 78 -6z m120 0 c32 -46 8
-118 -39 -118 -35 0 -55 26 -55 70 0 22 7 45 16 54 22 23 60 20 78 -6z m696
-38 c0 -53 2 -60 20 -60 11 0 20 -4 20 -10 0 -5 -22 -10 -50 -10 -27 0 -50 5
-50 10 0 6 7 10 15 10 11 0 15 12 15 45 0 33 -4 45 -15 45 -18 0 -20 16 -2 23
40 17 47 9 47 -53z m120 0 c0 -53 2 -60 20 -60 11 0 20 -4 20 -10 0 -5 -22
-10 -50 -10 -27 0 -50 5 -50 10 0 6 7 10 15 10 11 0 15 12 15 45 0 33 -4 45
-15 45 -18 0 -20 16 -2 23 40 17 47 9 47 -53z m150 45 c7 -9 13 -33 13 -55 0
-49 -17 -70 -54 -70 -32 0 -59 31 -59 70 0 58 67 95 100 55z m238 3 c7 -7 12
-21 12 -32 0 -17 4 -15 20 12 15 24 27 32 49 32 37 0 54 -21 54 -70 0 -49 -17
-70 -54 -70 -22 0 -34 8 -49 33 -16 26 -20 28 -20 12 0 -47 -66 -63 -94 -23
-34 48 -8 118 43 118 15 0 32 -5 39 -12z m812 -48 c0 -53 2 -60 20 -60 11 0
20 -4 20 -10 0 -5 -22 -10 -50 -10 -27 0 -50 5 -50 10 0 6 9 10 20 10 17 0 20
7 20 45 0 38 -3 45 -20 45 -39 0 -18 27 23 29 14 1 17 -8 17 -59z m150 45 c10
-12 10 -18 1 -29 -8 -10 -9 -16 -1 -21 14 -8 13 -48 -2 -63 -26 -26 -88 -8
-88 25 0 18 27 16 34 -2 7 -19 32 -20 39 -1 6 16 -11 36 -30 36 -21 0 -15 17
9 24 18 4 20 8 10 18 -9 9 -15 9 -24 0 -7 -7 -18 -12 -25 -12 -11 0 -11 5 -3
20 13 24 62 27 80 5z m118 3 c5 -7 12 -22 14 -33 3 -17 6 -16 18 10 16 33 60
46 85 25 21 -18 28 -66 13 -97 -11 -23 -20 -28 -48 -28 -28 0 -37 5 -49 29
l-14 29 -13 -31 c-10 -26 -19 -32 -42 -32 -30 0 -61 24 -48 37 4 4 16 2 26 -5
26 -16 27 -15 39 7 9 16 7 17 -14 13 -45 -8 -75 44 -43 76 16 16 63 15 76 0z
m367 -15 c5 -13 12 -23 15 -23 3 0 10 10 15 23 11 25 58 35 80 17 21 -18 28
-66 13 -97 -11 -23 -20 -28 -48 -28 -27 0 -37 5 -45 23 -5 12 -12 22 -15 22
-3 0 -10 -10 -15 -22 -13 -29 -66 -36 -86 -12 -7 9 -14 33 -14 54 0 21 7 45
14 54 20 24 73 17 86 -11z m-4805 -22 c0 -3 -10 -11 -22 -16 -31 -13 -37 -55
-9 -55 12 0 21 -4 21 -10 0 -5 -20 -10 -45 -10 -25 0 -45 5 -45 10 0 6 7 10
15 10 10 0 15 10 15 30 0 20 -5 30 -15 30 -8 0 -15 4 -15 9 0 6 23 10 50 9 28
0 50 -3 50 -7z m108 -3 c7 -7 12 -24 12 -38 0 -33 -17 -50 -50 -50 -33 0 -50
17 -50 50 0 33 17 50 50 50 14 0 31 -5 38 -12z m122 -3 c18 -21 4 -32 -21 -17
-24 15 -39 8 -39 -18 0 -26 15 -33 39 -18 11 7 23 9 27 5 13 -12 -18 -37 -47
-37 -38 0 -58 37 -41 75 13 29 61 35 82 10z m118 3 c7 -7 12 -20 12 -30 0 -14
-8 -18 -36 -18 -22 0 -33 -4 -29 -11 4 -6 20 -7 38 -3 28 6 30 5 18 -10 -21
-26 -69 -21 -83 9 -17 37 3 75 40 75 15 0 33 -5 40 -12z m132 3 c0 -3 -10 -11
-22 -16 -31 -13 -37 -55 -9 -55 12 0 21 -4 21 -10 0 -5 -20 -10 -45 -10 -25 0
-45 5 -45 10 0 6 7 10 15 10 10 0 15 10 15 30 0 20 -5 30 -15 30 -8 0 -15 4
-15 9 0 6 23 10 50 9 28 0 50 -3 50 -7z m80 -31 c0 -33 3 -40 20 -40 11 0 20
-4 20 -10 0 -5 -20 -10 -45 -10 -25 0 -45 5 -45 10 0 6 7 10 15 10 10 0 15 10
15 30 0 20 -5 30 -15 30 -8 0 -15 5 -15 10 0 6 11 10 25 10 23 0 25 -4 25 -40z
m148 28 c7 -7 12 -20 12 -30 0 -14 -8 -18 -36 -18 -22 0 -33 -4 -29 -11 4 -6
20 -7 38 -3 28 6 30 5 18 -10 -21 -26 -69 -21 -83 9 -17 37 3 75 40 75 15 0
33 -5 40 -12z m120 -7 c3 -10 -2 -12 -22 -7 -15 4 -26 2 -26 -4 0 -5 8 -10 19
-10 28 0 47 -26 31 -45 -16 -20 -69 -20 -77 0 -8 22 4 30 21 16 8 -7 20 -9 27
-5 7 4 0 12 -20 20 -29 12 -39 32 -24 48 12 12 66 2 71 -13z m1062 -66 c0 -8
-6 -15 -14 -15 -17 0 -28 14 -19 24 12 12 33 6 33 -9z m1330 0 c0 -8 -9 -15
-20 -15 -11 0 -20 7 -20 15 0 8 9 15 20 15 11 0 20 -7 20 -15z m1440 0 c0 -8
-9 -15 -20 -15 -11 0 -20 7 -20 15 0 8 9 15 20 15 11 0 20 -7 20 -15z m-3365
-501 c14 -9 25 -23 25 -30 0 -17 -12 -18 -28 -2 -9 9 -12 8 -12 -4 0 -9 11
-23 25 -32 14 -9 25 -23 25 -31 0 -13 -45 -55 -59 -55 -11 0 -51 40 -51 50 0
14 27 12 33 -2 3 -7 6 -3 6 10 1 12 -3 22 -9 22 -5 0 -14 10 -21 21 -9 18 -7
25 13 45 28 28 24 27 53 8z m1453 -4 c12 -12 22 -25 22 -30 0 -14 -27 -12 -33
3 -3 6 -6 2 -6 -9 -1 -14 7 -24 19 -27 29 -8 26 -51 -5 -71 -23 -15 -27 -15
-49 -1 -13 9 -27 23 -30 31 -7 17 15 19 32 2 9 -9 12 -8 12 8 0 10 -9 25 -20
32 -26 16 -25 46 3 65 29 21 29 21 55 -3z m1377 4 c14 -9 25 -23 25 -30 0 -17
-12 -18 -28 -2 -9 9 -12 8 -12 -5 0 -9 9 -21 20 -27 28 -15 25 -54 -5 -74 -23
-15 -27 -15 -50 0 -14 9 -25 23 -25 30 0 17 12 18 28 2 9 -9 12 -8 12 8 0 10
-9 25 -20 32 -11 7 -20 22 -20 33 0 12 8 23 20 26 11 3 20 9 20 14 0 13 7 11
35 -7z m-4315 -48 c0 -30 5 -58 10 -61 22 -13 40 17 40 66 0 27 5 49 10 49 14
0 12 -114 -2 -128 -7 -7 -24 -12 -38 -12 -39 0 -50 18 -50 82 0 45 3 58 15 58
11 0 15 -13 15 -54z m273 39 c1 -5 -6 -11 -15 -13 -11 -2 -18 3 -18 13 0 17
30 18 33 0z m117 -45 c0 -53 2 -60 20 -60 11 0 20 -4 20 -10 0 -5 -22 -10 -50
-10 -27 0 -50 5 -50 10 0 6 7 10 15 10 11 0 15 12 15 50 0 38 -4 50 -15 50 -8
0 -15 5 -15 10 0 6 14 10 30 10 l30 0 0 -60z m123 45 c1 -5 -6 -11 -15 -13
-11 -2 -18 3 -18 13 0 17 30 18 33 0z m240 0 c1 -5 -6 -11 -15 -13 -11 -2 -18
3 -18 13 0 17 30 18 33 0z m847 -45 c0 -47 3 -60 15 -60 8 0 15 -4 15 -10 0
-5 -22 -10 -50 -10 -27 0 -50 5 -50 10 0 6 9 10 20 10 17 0 20 7 20 45 0 33
-4 45 -15 45 -18 0 -20 16 -2 23 40 17 47 9 47 -53z m144 38 c32 -46 8 -118
-39 -118 -35 0 -55 26 -55 70 0 22 7 45 16 54 22 23 60 20 78 -6z m120 0 c32
-46 8 -118 -39 -118 -35 0 -55 26 -55 70 0 22 7 45 16 54 22 23 60 20 78 -6z
m120 0 c32 -46 8 -118 -39 -118 -35 0 -55 26 -55 70 0 22 7 45 16 54 22 23 60
20 78 -6z m240 0 c32 -46 8 -118 -39 -118 -35 0 -55 26 -55 70 0 22 7 45 16
54 22 23 60 20 78 -6z m120 0 c32 -46 8 -118 -39 -118 -35 0 -55 26 -55 70 0
22 7 45 16 54 22 23 60 20 78 -6z m726 12 c0 -5 -13 -10 -30 -10 -16 0 -30 -4
-30 -10 0 -5 10 -10 23 -10 13 0 28 -5 35 -12 15 -15 15 -61 0 -76 -17 -17
-63 -15 -78 3 -18 21 -4 32 21 17 24 -15 39 -8 39 18 0 26 -15 33 -39 18 -27
-17 -35 -6 -27 37 7 33 9 35 46 35 22 0 40 -4 40 -10z m120 0 c0 -5 -13 -10
-30 -10 -16 0 -30 -4 -30 -10 0 -5 10 -10 23 -10 13 0 28 -5 35 -12 15 -15 15
-61 0 -76 -17 -17 -63 -15 -78 3 -18 21 -4 32 21 17 24 -15 39 -8 39 18 0 26
-15 33 -39 18 -27 -17 -35 -6 -27 37 7 33 9 35 46 35 22 0 40 -4 40 -10z m120
-34 c0 -26 5 -47 13 -50 10 -5 10 -7 0 -12 -7 -3 -13 -12 -13 -20 0 -8 -7 -14
-15 -14 -8 0 -15 7 -15 15 0 10 -11 15 -35 15 -19 0 -35 2 -35 5 0 3 15 28 33
55 42 65 67 67 67 6z m238 32 c7 -7 12 -21 12 -32 0 -17 4 -15 20 12 15 24 27
32 49 32 37 0 54 -21 54 -70 0 -49 -17 -70 -54 -70 -22 0 -34 8 -49 33 -16 26
-20 28 -20 12 0 -47 -66 -63 -94 -23 -34 48 -8 118 43 118 15 0 32 -5 39 -12z
m902 -32 c0 -26 5 -47 13 -50 10 -5 10 -7 0 -12 -7 -3 -13 -12 -13 -20 0 -8
-7 -14 -15 -14 -8 0 -15 7 -15 15 0 10 -10 15 -30 15 -38 0 -38 10 0 66 41 58
60 58 60 0z m120 0 c0 -26 5 -47 13 -50 10 -5 10 -7 0 -12 -7 -3 -13 -12 -13
-20 0 -8 -7 -14 -15 -14 -8 0 -15 7 -15 15 0 10 -10 15 -30 15 -38 0 -38 10 0
66 41 58 60 58 60 0z m120 29 c16 -19 5 -34 -12 -17 -17 17 -36 15 -47 -7 -9
-16 -7 -17 14 -13 31 5 55 -13 55 -42 0 -30 -18 -46 -52 -46 -32 0 -48 24 -48
71 0 57 58 92 90 54z m245 -12 c5 -13 12 -23 15 -23 3 0 10 10 15 23 11 25 58
35 80 17 21 -18 28 -66 13 -97 -11 -23 -20 -28 -48 -28 -27 0 -37 5 -45 23 -5
12 -12 22 -15 22 -3 0 -10 -10 -15 -22 -13 -29 -66 -36 -86 -12 -7 9 -14 33
-14 54 0 21 7 45 14 54 20 24 73 17 86 -11z m-4795 2 c0 -8 9 -15 20 -15 11 0
20 -4 20 -10 0 -5 -9 -10 -20 -10 -15 0 -20 -7 -20 -26 0 -17 6 -28 20 -31 30
-8 24 -25 -7 -21 -24 3 -28 8 -31 41 -2 24 -8 37 -18 37 -8 0 -14 5 -14 10 0
6 7 10 15 10 8 0 15 7 15 15 0 8 5 15 10 15 6 0 10 -7 10 -15z m480 0 c0 -8 9
-15 20 -15 11 0 20 -4 20 -10 0 -5 -9 -10 -20 -10 -15 0 -20 -7 -20 -26 0 -17
6 -28 20 -31 30 -8 24 -25 -7 -21 -24 3 -28 8 -31 41 -2 24 -8 37 -18 37 -8 0
-14 5 -14 10 0 6 7 10 15 10 8 0 15 7 15 15 0 8 5 15 10 15 6 0 10 -7 10 -15z
m-350 -55 c0 -33 3 -40 20 -40 11 0 20 -4 20 -10 0 -5 -20 -10 -45 -10 -25 0
-45 5 -45 10 0 6 7 10 15 10 10 0 15 10 15 30 0 20 -5 30 -15 30 -8 0 -15 5
-15 10 0 6 11 10 25 10 23 0 25 -4 25 -40z m240 0 c0 -33 3 -40 20 -40 11 0
20 -4 20 -10 0 -5 -20 -10 -45 -10 -25 0 -45 5 -45 10 0 6 7 10 15 10 10 0 15
10 15 30 0 20 -5 30 -15 30 -8 0 -15 5 -15 10 0 6 11 10 25 10 23 0 25 -4 25
-40z m240 0 c0 -33 3 -40 20 -40 11 0 20 -4 20 -10 0 -5 -20 -10 -45 -10 -25
0 -45 5 -45 10 0 6 7 10 15 10 10 0 15 10 15 30 0 20 -5 30 -15 30 -8 0 -15 5
-15 10 0 6 11 10 25 10 23 0 25 -4 25 -40z m148 28 c7 -7 12 -20 12 -30 0 -14
-8 -18 -36 -18 -22 0 -33 -4 -29 -11 4 -6 20 -7 38 -3 28 6 30 5 18 -10 -21
-26 -69 -21 -83 9 -17 37 3 75 40 75 15 0 33 -5 40 -12z m120 -7 c3 -10 -2
-12 -22 -7 -15 4 -26 2 -26 -4 0 -5 8 -10 19 -10 28 0 47 -26 31 -45 -16 -20
-69 -20 -77 0 -8 22 4 30 21 16 8 -7 20 -9 27 -5 7 4 0 12 -20 20 -29 12 -39
32 -24 48 12 12 66 2 71 -13z m1062 -66 c0 -8 -6 -15 -14 -15 -17 0 -28 14
-19 24 12 12 33 6 33 -9z m1330 0 c0 -8 -9 -15 -20 -15 -11 0 -20 7 -20 15 0
8 9 15 20 15 11 0 20 -7 20 -15z m1380 0 c0 -8 -9 -15 -20 -15 -11 0 -20 7
-20 15 0 8 9 15 20 15 11 0 20 -7 20 -15z m-2384 -371 c56 -41 69 -69 69 -149
0 -80 -13 -108 -69 -149 -27 -20 -39 -21 -426 -21 -387 0 -399 1 -426 21 -44
32 -66 68 -71 117 -8 64 3 111 34 148 50 59 51 59 475 56 373 -2 388 -3 414
-23z m571 -99 c8 -23 -2 -28 -26 -13 -18 11 -23 11 -31 -2 -5 -8 -10 -19 -10
-25 0 -5 5 -17 10 -25 8 -13 13 -13 31 -2 24 15 34 10 26 -13 -8 -18 -58 -20
-75 -3 -7 7 -12 26 -12 43 0 17 5 36 12 43 17 17 67 15 75 -3z m343 -5 c0 -5
7 -10 15 -10 8 0 15 -4 15 -10 0 -5 -7 -10 -15 -10 -8 0 -15 -9 -15 -20 0 -11
7 -20 15 -20 8 0 15 -4 15 -10 0 -5 -11 -10 -25 -10 -21 0 -25 5 -25 29 0 16
-5 31 -12 33 -9 3 -8 9 2 21 17 19 30 22 30 7z m-250 -19 c0 -5 -9 -11 -20
-14 -23 -6 -27 -37 -5 -37 8 0 15 -4 15 -10 0 -5 -16 -10 -35 -10 -33 0 -34 1
-23 20 10 16 10 24 0 40 -11 19 -10 20 28 20 22 0 40 -4 40 -9z m95 -31 c0
-33 -2 -35 -35 -35 -29 0 -36 4 -38 23 -6 40 5 54 40 50 30 -3 33 -6 33 -38z
m93 -2 c3 -37 3 -38 -32 -38 -35 0 -40 6 -37 40 4 34 12 41 38 38 24 -3 28 -8
31 -40z m194 30 c4 -37 3 -44 -5 -55 -28 -38 -89 6 -67 47 12 22 69 28 72 8z
m-1890 -1013 l22 -46 23 46 c16 30 30 45 43 45 26 0 26 -1 -10 -63 -21 -38
-30 -67 -30 -100 0 -40 -3 -47 -20 -47 -16 0 -20 7 -20 35 0 21 -15 65 -35
105 -33 65 -34 70 -15 70 14 0 27 -14 42 -45z m978 25 c11 -11 20 -24 20 -30
0 -16 -31 -12 -51 6 -10 9 -25 14 -34 11 -29 -12 -15 -37 29 -56 57 -25 73
-66 39 -103 -35 -38 -133 -11 -133 37 0 22 29 18 49 -6 12 -16 23 -20 39 -15
37 12 27 42 -20 61 -24 9 -46 22 -50 28 -14 22 -8 66 10 76 29 17 80 13 102
-9z m505 -5 c0 -23 -34 -33 -45 -14 -13 20 1 40 24 37 13 -2 21 -10 21 -23z
m-1225 -55 c12 -12 20 -33 20 -55 0 -46 -29 -75 -75 -75 -43 0 -75 32 -75 75
0 66 84 101 130 55z m92 -31 c6 -96 68 -89 68 8 0 36 3 43 20 43 18 0 20 -7
20 -74 l0 -74 -62 1 c-56 2 -64 5 -75 27 -7 14 -13 46 -13 73 0 40 3 47 19 47
17 0 20 -8 23 -51z m288 35 c0 -8 -10 -14 -23 -14 -32 0 -47 -18 -47 -57 0
-29 3 -33 25 -33 16 0 25 -6 25 -15 0 -12 -13 -15 -60 -15 -47 0 -60 3 -60 15
0 8 7 15 15 15 11 0 15 12 15 45 0 33 -4 45 -15 45 -8 0 -15 6 -15 14 0 11 16
14 70 14 54 0 70 -3 70 -14z m514 0 c22 -22 23 -134 1 -134 -8 0 -15 5 -15 12
0 9 -3 9 -12 0 -7 -7 -24 -12 -38 -12 -31 0 -50 17 -50 45 0 31 19 45 64 45
38 0 39 1 23 17 -14 15 -21 15 -37 5 -21 -13 -50 -16 -50 -5 0 3 7 15 17 25
20 22 76 24 97 2z m111 -42 l22 -54 20 54 c15 40 26 54 43 56 16 3 21 0 17
-10 -43 -109 -61 -138 -82 -138 -17 0 -27 10 -38 38 -9 20 -23 54 -32 75 -16
38 -16 38 6 35 17 -2 28 -17 44 -56z m215 39 c5 -11 10 -38 10 -60 0 -34 3
-41 20 -41 11 0 20 -7 20 -15 0 -12 -14 -15 -65 -15 -51 0 -65 3 -65 15 0 9
10 15 26 15 23 0 25 3 22 43 -2 35 -7 43 -25 45 -13 2 -23 10 -23 18 0 23 67
18 80 -5z m225 -4 c9 -13 15 -43 15 -74 0 -46 -3 -53 -20 -53 -17 0 -20 7 -20
48 0 44 -12 72 -31 72 -21 0 -39 -35 -39 -76 0 -32 -4 -44 -15 -44 -12 0 -15
15 -15 73 l0 73 55 2 c46 1 57 -2 70 -21z m195 8 c0 -8 -4 -15 -10 -15 -5 0
-10 -10 -10 -23 0 -32 -18 -47 -57 -47 -18 0 -33 -4 -33 -10 0 -5 18 -10 39
-10 36 0 71 -19 71 -38 0 -4 -7 -18 -16 -30 -11 -16 -25 -22 -55 -22 -66 0
-80 13 -73 68 3 26 5 61 5 79 -1 47 21 63 85 63 41 0 54 -4 54 -15z m154 -7
c15 -24 0 -34 -29 -18 -19 10 -28 11 -37 2 -12 -12 -13 -11 47 -29 60 -19 38
-83 -29 -83 -28 0 -66 24 -66 42 0 12 34 10 47 -3 13 -13 43 -5 43 10 0 6 -18
15 -40 21 -22 6 -40 12 -40 15 0 2 -3 10 -6 18 -3 8 2 22 12 31 21 22 83 18
98 -6z m-1037 -670 c-2 -35 -3 -7 -3 62 0 69 1 97 3 63 2 -35 2 -91 0 -125z
m-1736 67 c23 -73 23 -75 4 -75 -8 0 -15 7 -15 15 0 9 -9 15 -25 15 -16 0 -25
-6 -25 -15 0 -8 -7 -15 -15 -15 -19 0 -19 -5 6 75 26 84 44 84 70 0z m2875 8
c9 -32 19 -64 21 -70 3 -7 -2 -13 -11 -13 -9 0 -16 7 -16 15 0 9 -9 15 -25 15
-16 0 -25 -6 -25 -15 0 -8 -7 -15 -15 -15 -18 0 -18 3 0 65 22 73 23 75 39 75
10 0 21 -20 32 -57z m-2186 32 c0 -8 9 -15 20 -15 11 0 20 -4 20 -10 0 -5 -9
-10 -20 -10 -16 0 -20 -7 -20 -30 0 -23 4 -30 20 -30 11 0 20 -5 20 -11 0 -6
-14 -9 -32 -7 -30 3 -33 7 -36 38 -2 19 -8 38 -14 41 -6 4 -3 15 8 28 22 25
34 27 34 6z m2760 0 c0 -8 9 -15 20 -15 11 0 20 -4 20 -10 0 -5 -9 -10 -20
-10 -16 0 -20 -7 -20 -30 0 -23 4 -30 20 -30 11 0 20 -5 20 -11 0 -6 -14 -9
-32 -7 -30 3 -33 6 -36 41 -2 24 -8 37 -18 37 -8 0 -14 5 -14 10 0 6 6 10 14
10 8 0 16 7 20 15 3 8 10 15 16 15 5 0 10 -7 10 -15z m-3323 -30 c8 -22 -4
-30 -22 -15 -13 11 -19 11 -33 -3 -15 -16 -15 -18 0 -34 14 -14 20 -14 33 -3
18 15 30 7 22 -15 -8 -18 -58 -20 -75 -3 -7 7 -12 24 -12 38 0 14 5 31 12 38
17 17 67 15 75 -3z m120 0 c8 -22 -4 -30 -22 -15 -13 11 -19 11 -33 -3 -15
-16 -15 -18 0 -34 14 -14 20 -14 33 -3 18 15 30 7 22 -15 -8 -18 -58 -20 -75
-3 -7 7 -12 24 -12 38 0 14 5 31 12 38 17 17 67 15 75 -3z m117 -1 c48 -48
-25 -113 -76 -67 -22 20 -23 41 -1 65 20 22 56 23 77 2z m56 -11 c0 -16 4 -34
9 -42 14 -22 41 5 41 40 0 16 5 29 10 29 6 0 10 -22 10 -49 l0 -49 -42 2 -43
1 -3 48 c-2 28 1 47 7 47 6 0 11 -12 11 -27z m188 -25 c4 -56 -15 -66 -20 -10
-2 25 -8 37 -18 37 -10 0 -16 -12 -18 -37 -2 -25 -8 -38 -18 -38 -10 0 -14 13
-14 49 l0 49 43 -2 42 -1 3 -47z m2410 0 c2 -38 0 -48 -12 -48 -12 0 -16 11
-18 43 l-1 42 -4 -42 c-6 -59 -33 -60 -33 -2 0 24 -4 38 -10 34 -5 -3 -10 -22
-10 -41 0 -19 -4 -34 -10 -34 -5 0 -10 23 -10 51 l0 50 53 -3 52 -3 3 -47z
m108 27 c15 -23 15 -27 0 -50 -28 -42 -96 -24 -96 25 0 49 68 67 96 25z m56
-12 c2 -26 8 -38 18 -38 10 0 16 12 18 38 2 24 8 37 18 37 10 0 14 -13 14 -49
l0 -49 -42 2 -43 1 -3 48 c-4 55 15 65 20 10z m186 -15 c2 -38 0 -48 -12 -48
-12 0 -16 10 -16 40 0 22 -4 40 -8 40 -17 0 -32 -25 -32 -52 0 -15 -4 -28 -10
-28 -5 0 -10 22 -10 49 l0 49 43 -2 42 -1 3 -47z m-633 -434 c14 -9 25 -23 25
-30 0 -17 -12 -18 -28 -2 -9 9 -12 8 -12 -4 0 -9 11 -23 25 -32 14 -9 25 -23
25 -31 0 -13 -45 -55 -59 -55 -11 0 -51 40 -51 50 0 14 27 12 33 -2 3 -7 6 -3
6 10 1 12 -3 22 -9 22 -5 0 -14 10 -21 21 -9 18 -7 25 13 45 28 28 24 27 53 8z
m-2775 -9 c18 -21 4 -32 -21 -17 -19 12 -39 9 -39 -7 0 -4 16 -15 35 -24 37
-18 46 -46 21 -66 -20 -17 -67 -10 -80 11 -15 25 1 34 23 14 19 -17 41 -15 41
4 0 4 -16 17 -35 29 -37 21 -43 39 -23 59 17 17 63 15 78 -3z m333 0 c1 -5 -6
-11 -15 -13 -11 -2 -18 3 -18 13 0 17 30 18 33 0z m2557 -45 c0 -47 3 -60 15
-60 8 0 15 -4 15 -10 0 -5 -22 -10 -50 -10 -27 0 -50 5 -50 10 0 6 9 10 20 10
17 0 20 7 20 45 0 33 -4 45 -15 45 -18 0 -20 16 -2 23 40 17 47 9 47 -53z
m144 38 c32 -46 8 -118 -39 -118 -35 0 -55 26 -55 70 0 22 7 45 16 54 22 23
60 20 78 -6z m96 -38 c0 -47 3 -60 15 -60 8 0 15 -4 15 -10 0 -5 -22 -10 -50
-10 -27 0 -50 5 -50 10 0 6 9 10 20 10 17 0 20 7 20 45 0 33 -4 45 -15 45 -18
0 -20 16 -2 23 40 17 47 9 47 -53z m144 38 c32 -46 8 -118 -39 -118 -35 0 -55
26 -55 70 0 22 7 45 16 54 22 23 60 20 78 -6z m120 0 c32 -46 8 -118 -39 -118
-35 0 -55 26 -55 70 0 22 7 45 16 54 22 23 60 20 78 -6z m240 0 c32 -46 8
-118 -39 -118 -35 0 -55 26 -55 70 0 22 7 45 16 54 22 23 60 20 78 -6z m120 0
c32 -46 8 -118 -39 -118 -35 0 -55 26 -55 70 0 22 7 45 16 54 22 23 60 20 78
-6z m-3634 -37 c5 -11 10 -33 10 -49 0 -28 -2 -30 -45 -30 -48 -1 -60 7 -50
38 4 14 15 20 36 20 17 0 28 4 24 10 -3 5 -20 6 -38 3 -29 -6 -31 -5 -18 10
19 23 68 22 81 -2z m61 -11 c6 -16 14 -30 18 -30 4 0 12 14 18 30 6 17 18 30
26 30 13 0 12 -8 -6 -50 -13 -32 -27 -50 -38 -50 -10 0 -24 18 -37 50 -17 42
-18 50 -6 50 8 0 20 -13 25 -30z m149 -10 c0 -29 4 -40 15 -40 8 0 15 -4 15
-10 0 -5 -20 -10 -45 -10 -25 0 -45 5 -45 10 0 6 9 10 20 10 15 0 20 7 20 25
0 14 -7 28 -15 31 -24 9 -17 24 10 24 23 0 25 -4 25 -40z m150 21 c15 -30 13
-81 -4 -81 -10 0 -16 13 -18 38 -2 25 -8 37 -18 37 -10 0 -16 -12 -18 -37 -2
-25 -8 -38 -18 -38 -10 0 -14 13 -14 50 l0 50 40 0 c29 0 42 -5 50 -19z m124
-3 c-9 -33 -22 -46 -47 -51 -19 -4 -18 -4 4 -6 15 0 32 -8 39 -16 20 -24 -6
-47 -49 -43 l-36 3 0 55 c-1 30 3 61 8 68 5 6 27 12 49 12 36 0 39 -2 32 -22z
m114 3 c3 -10 -2 -12 -22 -7 -14 3 -26 2 -26 -3 0 -5 10 -11 23 -13 16 -2 22
-10 22 -28 0 -20 -6 -26 -28 -28 -33 -4 -63 16 -48 31 7 7 15 6 26 -3 11 -9
19 -10 26 -3 8 8 2 13 -20 18 -30 6 -42 31 -24 49 12 12 66 2 71 -13z m2772
-66 c0 -8 -6 -15 -14 -15 -17 0 -28 14 -19 24 12 12 33 6 33 -9z m-595 -501
c14 -9 25 -23 25 -30 0 -17 -12 -18 -28 -2 -9 9 -12 8 -12 -4 0 -9 11 -23 25
-32 14 -9 25 -23 25 -31 0 -13 -45 -55 -59 -55 -11 0 -51 40 -51 50 0 14 27
12 33 -2 3 -7 6 -3 6 10 1 12 -3 22 -9 22 -5 0 -14 10 -21 21 -9 18 -7 25 13
45 28 28 24 27 53 8z m-3011 -41 c13 -46 14 -47 24 -23 5 14 11 34 13 45 3 11
11 21 20 23 15 3 14 -5 -4 -68 -27 -90 -46 -93 -71 -12 -10 31 -21 63 -23 70
-3 6 2 12 11 12 10 0 20 -17 30 -47z m629 32 c1 -5 -6 -11 -15 -13 -11 -2 -18
3 -18 13 0 17 30 18 33 0z m2497 -45 c0 -47 3 -60 15 -60 8 0 15 -4 15 -10 0
-5 -22 -10 -50 -10 -27 0 -50 5 -50 10 0 6 9 10 20 10 17 0 20 7 20 45 0 33
-4 45 -15 45 -18 0 -20 16 -2 23 40 17 47 9 47 -53z m120 0 c0 -47 3 -60 15
-60 8 0 15 -4 15 -10 0 -5 -22 -10 -50 -10 -27 0 -50 5 -50 10 0 6 9 10 20 10
17 0 20 7 20 45 0 33 -4 45 -15 45 -18 0 -20 16 -2 23 40 17 47 9 47 -53z
m144 38 c32 -46 8 -118 -39 -118 -35 0 -55 26 -55 70 0 22 7 45 16 54 22 23
60 20 78 -6z m240 0 c32 -46 8 -118 -39 -118 -35 0 -55 26 -55 70 0 22 7 45
16 54 22 23 60 20 78 -6z m120 0 c32 -46 8 -118 -39 -118 -35 0 -55 26 -55 70
0 22 7 45 16 54 22 23 60 20 78 -6z m-3254 -3 c0 -8 9 -15 20 -15 11 0 20 -4
20 -10 0 -5 -9 -10 -20 -10 -16 0 -20 -7 -20 -30 0 -23 4 -30 20 -30 11 0 20
-4 20 -10 0 -5 -11 -10 -25 -10 -26 0 -45 25 -45 59 0 10 -5 21 -12 23 -8 3
-5 11 8 25 23 26 34 28 34 8z m-320 -34 c5 -11 10 -33 10 -49 0 -28 -2 -30
-45 -30 -48 -1 -60 7 -50 38 4 14 15 20 36 20 17 0 28 4 24 10 -3 5 -20 6 -38
3 -29 -6 -31 -5 -18 10 19 23 68 22 81 -2z m120 4 c18 -21 4 -32 -21 -17 -24
15 -39 8 -39 -18 0 -26 15 -33 39 -18 25 15 39 4 21 -17 -15 -18 -61 -20 -78
-3 -7 7 -12 24 -12 38 0 14 5 31 12 38 17 17 63 15 78 -3z m120 -4 c5 -11 10
-33 10 -49 0 -28 -2 -30 -45 -30 -48 -1 -60 7 -50 38 4 14 15 20 36 20 17 0
28 4 24 10 -3 5 -20 6 -38 3 -29 -6 -31 -5 -18 10 19 23 68 22 81 -2z m210
-21 c0 -29 4 -40 15 -40 8 0 15 -4 15 -10 0 -5 -20 -10 -45 -10 -25 0 -45 5
-45 10 0 6 9 10 20 10 15 0 20 7 20 25 0 14 -7 28 -15 31 -24 9 -17 24 10 24
23 0 25 -4 25 -40z m148 28 c7 -7 12 -24 12 -38 0 -33 -17 -50 -50 -50 -33 0
-50 17 -50 50 0 33 17 50 50 50 14 0 31 -5 38 -12z m122 -7 c15 -30 13 -81 -4
-81 -10 0 -16 13 -18 38 -2 25 -8 37 -18 37 -10 0 -16 -12 -18 -37 -2 -25 -8
-38 -18 -38 -10 0 -14 13 -14 50 l0 50 40 0 c29 0 42 -5 50 -19z m2590 -66 c0
-8 -6 -15 -14 -15 -17 0 -28 14 -19 24 12 12 33 6 33 -9z m-475 -501 c14 -9
25 -23 25 -30 0 -17 -12 -18 -28 -2 -9 9 -12 8 -12 -4 0 -9 11 -23 25 -32 14
-9 25 -23 25 -31 0 -13 -45 -55 -59 -55 -11 0 -51 40 -51 50 0 14 27 12 33 -2
3 -7 6 -3 6 10 1 12 -3 22 -9 22 -5 0 -14 10 -21 21 -9 18 -7 25 13 45 28 28
24 27 53 8z m-2895 -54 l0 -60 35 0 c19 0 35 -4 35 -10 0 -5 -22 -10 -50 -10
l-50 0 0 70 c0 56 3 70 15 70 12 0 15 -13 15 -60z m3010 0 c0 -47 3 -60 15
-60 8 0 15 -4 15 -10 0 -5 -22 -10 -50 -10 -27 0 -50 5 -50 10 0 6 9 10 20 10
17 0 20 7 20 45 0 33 -4 45 -15 45 -18 0 -20 16 -2 23 40 17 47 9 47 -53z
m145 23 c0 -17 3 -35 8 -39 21 -22 -10 -64 -48 -64 -24 0 -55 23 -55 41 0 15
22 10 35 -8 14 -19 45 -11 45 13 0 9 -9 18 -20 21 -23 6 -27 23 -5 23 8 0 15
7 15 15 0 17 -25 20 -35 5 -9 -15 -25 -12 -25 4 0 18 17 25 55 23 27 -2 30 -6
30 -34z m119 15 c32 -46 8 -118 -39 -118 -35 0 -55 26 -55 70 0 22 7 45 16 54
22 23 60 20 78 -6z m240 0 c32 -46 8 -118 -39 -118 -35 0 -55 26 -55 70 0 22
7 45 16 54 22 23 60 20 78 -6z m120 0 c32 -46 8 -118 -39 -118 -35 0 -55 26
-55 70 0 22 7 45 16 54 22 23 60 20 78 -6z m-3254 -3 c0 -8 9 -15 20 -15 11 0
20 -4 20 -10 0 -5 -9 -10 -20 -10 -16 0 -20 -7 -20 -30 0 -23 4 -30 20 -30 11
0 20 -4 20 -10 0 -5 -11 -10 -25 -10 -26 0 -45 25 -45 59 0 10 -5 21 -12 23
-8 3 -5 11 8 25 23 26 34 28 34 8z m-200 -34 c5 -11 10 -33 10 -49 0 -28 -2
-30 -45 -30 -48 -1 -60 7 -50 38 4 14 15 20 36 20 17 0 28 4 24 10 -3 5 -20 6
-38 3 -29 -6 -31 -5 -18 10 19 23 68 22 81 -2z m117 8 c16 -14 17 -61 1 -77
-7 -7 -22 -12 -35 -12 -16 0 -23 -6 -23 -20 0 -11 -7 -20 -15 -20 -12 0 -15
14 -15 68 l0 69 37 1 c20 1 42 -3 50 -9z m241 -1 c7 -7 12 -24 12 -38 0 -33
-17 -50 -50 -50 -33 0 -50 17 -50 50 0 14 5 31 12 38 15 15 61 15 76 0z m119
1 c16 -14 17 -61 1 -77 -7 -7 -22 -12 -35 -12 -16 0 -23 -6 -23 -20 0 -11 -7
-20 -15 -20 -12 0 -15 14 -15 68 l0 69 37 1 c20 1 42 -3 50 -9z m2713 -74 c0
-8 -6 -15 -14 -15 -17 0 -28 14 -19 24 12 12 33 6 33 -9z m-1764 -371 c56 -41
69 -69 69 -149 0 -80 -13 -108 -69 -149 -27 -20 -39 -21 -426 -21 -387 0 -399
1 -426 21 -44 32 -66 68 -71 117 -8 64 3 111 34 148 50 59 51 59 475 56 373
-2 388 -3 414 -23z m571 -99 c8 -23 -2 -28 -26 -13 -18 11 -23 11 -31 -2 -5
-8 -10 -19 -10 -25 0 -5 5 -17 10 -25 8 -13 13 -13 31 -2 24 15 34 10 26 -13
-8 -18 -58 -20 -75 -3 -7 7 -12 26 -12 43 0 17 5 36 12 43 17 17 67 15 75 -3z
m343 -5 c0 -5 7 -10 15 -10 8 0 15 -4 15 -10 0 -5 -7 -10 -15 -10 -8 0 -15 -9
-15 -20 0 -11 7 -20 15 -20 8 0 15 -4 15 -10 0 -5 -11 -10 -25 -10 -21 0 -25
5 -25 29 0 16 -5 31 -12 33 -9 3 -8 9 2 21 17 19 30 22 30 7z m-250 -19 c0 -5
-9 -11 -20 -14 -23 -6 -27 -37 -5 -37 8 0 15 -4 15 -10 0 -5 -16 -10 -35 -10
-33 0 -34 1 -23 20 10 16 10 24 0 40 -11 19 -10 20 28 20 22 0 40 -4 40 -9z
m95 -31 c0 -33 -2 -35 -35 -35 -29 0 -36 4 -38 23 -6 40 5 54 40 50 30 -3 33
-6 33 -38z m93 -2 c3 -37 3 -38 -32 -38 -35 0 -40 6 -37 40 4 34 12 41 38 38
24 -3 28 -8 31 -40z m194 30 c4 -37 3 -44 -5 -55 -28 -38 -89 6 -67 47 12 22
69 28 72 8z"/>
<path d="M5695 8521 c-116 -53 -151 -202 -73 -304 13 -17 15 -17 61 3 53 24
58 39 29 92 -11 19 -20 56 -21 86 -1 44 3 57 24 77 33 34 92 34 129 0 23 -21
26 -32 25 -77 -1 -31 -9 -67 -20 -86 -30 -52 -25 -68 28 -92 l47 -21 18 23
c48 63 49 163 2 230 -56 80 -162 109 -249 69z"/>
<path d="M6350 8420 c0 -6 43 -10 110 -10 67 0 110 4 110 10 0 6 -43 10 -110
10 -67 0 -110 -4 -110 -10z"/>
<path d="M6350 8340 c0 -6 43 -10 110 -10 67 0 110 4 110 10 0 6 -43 10 -110
10 -67 0 -110 -4 -110 -10z"/>
<path d="M6350 8260 c0 -6 43 -10 110 -10 67 0 110 4 110 10 0 6 -43 10 -110
10 -67 0 -110 -4 -110 -10z"/>
<path d="M4342 7668 c-7 -7 -12 -21 -12 -33 0 -47 62 -63 81 -21 22 47 -33 90
-69 54z"/>
<path d="M2515 7670 c-4 -6 10 -10 34 -10 23 0 41 5 41 10 0 6 -15 10 -34 10
-19 0 -38 -4 -41 -10z"/>
<path d="M3124 7666 c-3 -8 -4 -27 -2 -43 2 -23 8 -28 35 -31 27 -3 35 1 44
21 16 36 -3 67 -42 67 -16 0 -32 -6 -35 -14z"/>
<path d="M3535 7670 c-4 -6 10 -10 35 -10 25 0 39 4 35 10 -3 6 -19 10 -35 10
-16 0 -32 -4 -35 -10z"/>
<path d="M4752 7658 c3 -25 25 -33 47 -19 21 14 5 41 -24 41 -22 0 -26 -4 -23
-22z"/>
<path d="M4740 7536 c0 -12 11 -16 41 -16 52 0 48 24 -4 28 -28 2 -37 -1 -37
-12z"/>
<path d="M4420 6796 c-15 -19 -9 -56 12 -69 34 -22 66 41 36 71 -16 16 -33 15
-48 -2z"/>
<path d="M2982 6798 c-30 -30 -2 -86 38 -73 15 5 20 15 20 40 0 41 -32 59 -58
33z"/>
<path d="M3880 6796 c-28 -34 11 -94 44 -67 21 17 21 67 0 75 -23 9 -30 8 -44
-8z"/>
<path d="M4060 6800 c-11 -7 -5 -10 23 -10 23 0 36 4 32 10 -8 13 -35 13 -55
0z"/>
<path d="M4965 6800 c-4 -7 -3 -16 3 -22 14 -14 45 -2 40 15 -6 16 -34 21 -43
7z"/>
<path d="M4952 6678 c5 -15 57 -18 61 -3 1 6 -13 11 -32 13 -24 3 -32 0 -29
-10z"/>
<path d="M6335 6810 c3 -5 8 -10 11 -10 2 0 4 5 4 10 0 6 -5 10 -11 10 -5 0
-7 -4 -4 -10z"/>
<path d="M2750 6240 c0 -15 5 -20 18 -18 9 2 17 10 17 18 0 8 -8 16 -17 18
-13 2 -18 -3 -18 -18z"/>
<path d="M2750 6181 c0 -15 6 -21 21 -21 14 0 19 5 17 17 -5 26 -38 29 -38 4z"/>
<path d="M2994 6206 c-8 -22 3 -49 19 -43 6 2 12 14 12 27 0 27 -22 39 -31 16z"/>
<path d="M5350 6235 c0 -20 4 -26 18 -23 9 2 17 12 17 23 0 11 -8 21 -17 23
-14 3 -18 -3 -18 -23z"/>
<path d="M1430 6170 c0 -5 4 -10 9 -10 6 0 13 5 16 10 3 6 -1 10 -9 10 -9 0
-16 -4 -16 -10z"/>
<path d="M1670 6210 c-12 -8 -9 -10 13 -10 16 0 26 4 22 10 -8 12 -16 12 -35
0z"/>
<path d="M1790 6205 c0 -9 5 -15 11 -13 6 2 11 8 11 13 0 5 -5 11 -11 13 -6 2
-11 -4 -11 -13z"/>
<path d="M1785 6130 c3 -5 13 -10 21 -10 8 0 14 5 14 10 0 6 -9 10 -21 10 -11
0 -17 -4 -14 -10z"/>
<path d="M1904 6206 c-9 -24 4 -48 23 -44 12 2 18 12 18 28 0 29 -32 41 -41
16z"/>
<path d="M3115 6211 c-7 -12 12 -24 25 -16 11 7 4 25 -10 25 -5 0 -11 -4 -15
-9z"/>
<path d="M3110 6130 c0 -5 9 -10 20 -10 11 0 20 5 20 10 0 6 -9 10 -20 10 -11
0 -20 -4 -20 -10z"/>
<path d="M3235 6210 c-3 -5 3 -10 15 -10 12 0 18 5 15 10 -3 6 -10 10 -15 10
-5 0 -12 -4 -15 -10z"/>
<path d="M4324 6206 c-8 -22 3 -49 19 -43 6 2 12 14 12 27 0 27 -22 39 -31 16z"/>
<path d="M4445 6210 c-3 -5 3 -10 15 -10 12 0 18 5 15 10 -3 6 -10 10 -15 10
-5 0 -12 -4 -15 -10z"/>
<path d="M5470 6210 c-12 -8 -9 -10 13 -10 16 0 26 4 22 10 -8 12 -16 12 -35
0z"/>
<path d="M5710 6170 c0 -5 4 -10 9 -10 6 0 13 5 16 10 3 6 -1 10 -9 10 -9 0
-16 -4 -16 -10z"/>
<path d="M6310 6205 c0 -9 5 -15 11 -13 6 2 11 8 11 13 0 5 -5 11 -11 13 -6 2
-11 -4 -11 -13z"/>
<path d="M6305 6130 c3 -5 13 -10 21 -10 8 0 14 5 14 10 0 6 -9 10 -21 10 -11
0 -17 -4 -14 -10z"/>
<path d="M2660 5656 c0 -9 5 -16 10 -16 6 0 10 4 10 9 0 6 -4 13 -10 16 -5 3
-10 -1 -10 -9z"/>
<path d="M4111 5654 c0 -11 3 -14 6 -6 3 7 2 16 -1 19 -3 4 -6 -2 -5 -13z"/>
<path d="M5430 5654 c0 -8 5 -12 10 -9 6 4 8 11 5 16 -9 14 -15 11 -15 -7z"/>
<path d="M2997 5733 c-4 -3 -7 -18 -7 -32 l1 -26 14 25 c8 14 14 28 15 33 0 9
-14 9 -23 0z"/>
<path d="M3022 5681 c-14 -38 -11 -49 7 -27 7 8 11 25 9 38 -3 20 -5 19 -16
-11z"/>
<path d="M3117 5733 c-4 -3 -7 -18 -7 -32 l1 -26 14 25 c8 14 14 28 15 33 0 9
-14 9 -23 0z"/>
<path d="M3142 5681 c-14 -38 -11 -49 7 -27 7 8 11 25 9 38 -3 20 -5 19 -16
-11z"/>
<path d="M3357 5733 c-4 -3 -7 -18 -7 -32 l1 -26 14 25 c8 14 14 28 15 33 0 9
-14 9 -23 0z"/>
<path d="M3382 5681 c-14 -38 -11 -49 7 -27 7 8 11 25 9 38 -3 20 -5 19 -16
-11z"/>
<path d="M3477 5733 c-4 -3 -7 -18 -7 -32 l1 -26 14 25 c8 14 14 28 15 33 0 9
-14 9 -23 0z"/>
<path d="M3502 5681 c-14 -38 -11 -49 7 -27 7 8 11 25 9 38 -3 20 -5 19 -16
-11z"/>
<path d="M4442 5728 c-6 -6 -12 -23 -12 -37 l1 -26 15 28 c17 32 15 54 -4 35z"/>
<path d="M4471 5686 c-6 -16 -14 -33 -17 -37 -3 -5 -1 -9 5 -9 15 0 33 38 28
58 -3 13 -7 10 -16 -12z"/>
<path d="M4682 5728 c-6 -6 -12 -23 -12 -37 l1 -26 15 28 c17 32 15 54 -4 35z"/>
<path d="M4802 5728 c-6 -6 -12 -23 -12 -37 l1 -26 15 28 c17 32 15 54 -4 35z"/>
<path d="M4711 5686 c-6 -16 -14 -33 -17 -37 -3 -5 -1 -9 5 -9 15 0 33 38 28
58 -3 13 -7 10 -16 -12z"/>
<path d="M4831 5686 c-6 -16 -14 -33 -17 -37 -3 -5 -1 -9 5 -9 15 0 33 38 28
58 -3 13 -7 10 -16 -12z"/>
<path d="M5763 5724 c-8 -21 13 -42 28 -27 13 13 5 43 -11 43 -6 0 -13 -7 -17
-16z"/>
<path d="M5880 5721 c-12 -23 -14 -59 -2 -45 5 5 13 21 20 37 13 31 -2 38 -18
8z"/>
<path d="M5908 5677 c-10 -21 -14 -37 -9 -37 16 0 33 29 29 51 -3 19 -5 17
-20 -14z"/>
<path d="M6120 5721 c-12 -23 -14 -59 -2 -45 5 5 13 21 20 37 13 31 -2 38 -18
8z"/>
<path d="M6240 5721 c-12 -23 -14 -59 -2 -45 5 5 13 21 20 37 13 31 -2 38 -18
8z"/>
<path d="M6148 5677 c-10 -21 -14 -37 -9 -37 16 0 33 29 29 51 -3 19 -5 17
-20 -14z"/>
<path d="M6268 5677 c-10 -21 -14 -37 -9 -37 16 0 33 29 29 51 -3 19 -5 17
-20 -14z"/>
<path d="M1437 5693 c-11 -10 -8 -41 4 -49 6 -3 18 1 27 9 13 13 13 19 2 31
-14 17 -23 20 -33 9z"/>
<path d="M1675 5690 c-3 -5 3 -10 15 -10 12 0 18 5 15 10 -3 6 -10 10 -15 10
-5 0 -12 -4 -15 -10z"/>
<path d="M2035 5690 c-3 -5 3 -10 15 -10 12 0 18 5 15 10 -3 6 -10 10 -15 10
-5 0 -12 -4 -15 -10z"/>
<path d="M2660 5036 c0 -9 5 -16 10 -16 6 0 10 4 10 9 0 6 -4 13 -10 16 -5 3
-10 -1 -10 -9z"/>
<path d="M4111 5034 c0 -11 3 -14 6 -6 3 7 2 16 -1 19 -3 4 -6 -2 -5 -13z"/>
<path d="M5490 5034 c0 -8 5 -12 10 -9 6 4 8 11 5 16 -9 14 -15 11 -15 -7z"/>
<path d="M2877 5113 c-4 -3 -7 -18 -7 -32 l1 -26 14 25 c8 14 14 28 15 33 0 9
-14 9 -23 0z"/>
<path d="M2902 5061 c-14 -38 -11 -49 7 -27 7 8 11 25 9 38 -3 20 -5 19 -16
-11z"/>
<path d="M2997 5113 c-4 -3 -7 -18 -7 -32 l1 -26 14 25 c8 14 14 28 15 33 0 9
-14 9 -23 0z"/>
<path d="M3022 5061 c-14 -38 -11 -49 7 -27 7 8 11 25 9 38 -3 20 -5 19 -16
-11z"/>
<path d="M3117 5113 c-4 -3 -7 -18 -7 -32 l1 -26 14 25 c8 14 14 28 15 33 0 9
-14 9 -23 0z"/>
<path d="M3142 5061 c-14 -38 -11 -49 7 -27 7 8 11 25 9 38 -3 20 -5 19 -16
-11z"/>
<path d="M3357 5113 c-4 -3 -7 -18 -7 -32 l1 -26 14 25 c8 14 14 28 15 33 0 9
-14 9 -23 0z"/>
<path d="M3382 5061 c-14 -38 -11 -49 7 -27 7 8 11 25 9 38 -3 20 -5 19 -16
-11z"/>
<path d="M3477 5113 c-4 -3 -7 -18 -7 -32 l1 -26 14 25 c8 14 14 28 15 33 0 9
-14 9 -23 0z"/>
<path d="M3502 5061 c-14 -38 -11 -49 7 -27 7 8 11 25 9 38 -3 20 -5 19 -16
-11z"/>
<path d="M4450 5070 c-9 -16 -8 -20 5 -20 8 0 15 9 15 20 0 11 -2 20 -5 20 -2
0 -9 -9 -15 -20z"/>
<path d="M4682 5108 c-6 -6 -12 -23 -12 -37 l1 -26 15 28 c17 32 15 54 -4 35z"/>
<path d="M4802 5108 c-6 -6 -12 -23 -12 -37 l1 -26 15 28 c17 32 15 54 -4 35z"/>
<path d="M4711 5066 c-6 -16 -14 -33 -17 -37 -3 -5 -1 -9 5 -9 15 0 33 38 28
58 -3 13 -7 10 -16 -12z"/>
<path d="M4831 5066 c-6 -16 -14 -33 -17 -37 -3 -5 -1 -9 5 -9 15 0 33 38 28
58 -3 13 -7 10 -16 -12z"/>
<path d="M5590 5070 c-9 -16 -8 -20 5 -20 8 0 15 9 15 20 0 11 -2 20 -5 20 -2
0 -9 -9 -15 -20z"/>
<path d="M5710 5070 c-9 -16 -8 -20 5 -20 8 0 15 9 15 20 0 11 -2 20 -5 20 -2
0 -9 -9 -15 -20z"/>
<path d="M5823 5054 c-9 -23 13 -40 32 -24 12 10 13 16 4 26 -15 18 -28 18
-36 -2z"/>
<path d="M6060 5101 c-12 -23 -14 -59 -2 -45 5 5 13 21 20 37 13 31 -2 38 -18
8z"/>
<path d="M6180 5101 c-12 -23 -14 -59 -2 -45 5 5 13 21 20 37 13 31 -2 38 -18
8z"/>
<path d="M6088 5057 c-10 -21 -14 -37 -9 -37 16 0 33 29 29 51 -3 19 -5 17
-20 -14z"/>
<path d="M6208 5057 c-10 -21 -14 -37 -9 -37 16 0 33 29 29 51 -3 19 -5 17
-20 -14z"/>
<path d="M2035 5070 c-3 -5 3 -10 15 -10 12 0 18 5 15 10 -3 6 -10 10 -15 10
-5 0 -12 -4 -15 -10z"/>
<path d="M3042 4508 l-2 -58 33 1 c29 2 30 2 5 6 -25 4 -27 9 -31 56 l-3 52
-2 -57z"/>
<path d="M3142 4518 c-28 -28 -1 -75 38 -63 14 4 20 15 20 35 0 36 -33 53 -58
28z m43 -28 c0 -16 -6 -26 -18 -28 -19 -4 -32 20 -23 44 9 25 41 13 41 -16z"/>
<path d="M3235 4518 c-2 -7 -3 -31 -2 -53 2 -43 25 -58 52 -35 19 16 10 30
-21 30 -30 0 -32 17 -3 22 12 2 26 13 30 26 7 20 5 22 -22 22 -16 0 -31 -6
-34 -12z m43 -16 c2 -7 -6 -12 -17 -12 -21 0 -27 11 -14 24 9 9 26 2 31 -12z
m2 -62 c0 -5 -9 -10 -20 -10 -11 0 -20 5 -20 10 0 6 9 10 20 10 11 0 20 -4 20
-10z"/>
<path d="M4308 4503 c6 -2 18 -2 25 0 6 3 1 5 -13 5 -14 0 -19 -2 -12 -5z"/>
<path d="M4308 4473 c7 -3 16 -2 19 1 4 3 -2 6 -13 5 -11 0 -14 -3 -6 -6z"/>
<path d="M4408 4503 c7 -3 16 -2 19 1 4 3 -2 6 -13 5 -11 0 -14 -3 -6 -6z"/>
<path d="M4598 4503 c7 -3 16 -2 19 1 4 3 -2 6 -13 5 -11 0 -14 -3 -6 -6z"/>
<path d="M4598 4473 c7 -3 16 -2 19 1 4 3 -2 6 -13 5 -11 0 -14 -3 -6 -6z"/>
<path d="M2932 3448 c-30 -30 -2 -86 38 -73 15 5 20 15 20 40 0 41 -32 59 -58
33z"/>
<path d="M3833 3395 c-3 -9 -3 -18 0 -21 10 -10 47 7 47 22 0 19 -39 18 -47
-1z"/>
<path d="M4555 3450 c-4 -7 -3 -16 3 -22 14 -14 45 -2 40 15 -6 16 -34 21 -43
7z"/>
<path d="M4542 3328 c5 -15 57 -18 61 -3 1 6 -13 11 -32 13 -24 3 -32 0 -29
-10z"/>
<path d="M1987 2861 c-3 -14 0 -21 9 -21 16 0 18 9 5 28 -6 10 -10 9 -14 -7z"/>
<path d="M4867 2865 c-8 -20 -4 -29 11 -24 5 2 6 13 2 23 -6 19 -7 19 -13 1z"/>
<path d="M2334 2856 c-9 -24 4 -48 23 -44 12 2 18 12 18 28 0 29 -32 41 -41
16z"/>
<path d="M5094 2856 c-9 -24 4 -48 23 -44 12 2 18 12 18 28 0 29 -32 41 -41
16z"/>
<path d="M4750 2306 c0 -9 5 -16 10 -16 6 0 10 4 10 9 0 6 -4 13 -10 16 -5 3
-10 -1 -10 -9z"/>
<path d="M4967 2383 c-4 -3 -7 -18 -7 -32 l1 -26 14 25 c8 14 14 28 15 33 0 9
-14 9 -23 0z"/>
<path d="M4992 2331 c-14 -38 -11 -49 7 -27 7 8 11 25 9 38 -3 20 -5 19 -16
-11z"/>
<path d="M5207 2383 c-4 -3 -7 -18 -7 -32 l1 -26 14 25 c8 14 14 28 15 33 0 9
-14 9 -23 0z"/>
<path d="M5232 2331 c-14 -38 -11 -49 7 -27 7 8 11 25 9 38 -3 20 -5 19 -16
-11z"/>
<path d="M5327 2383 c-4 -3 -7 -18 -7 -32 l1 -26 14 25 c8 14 14 28 15 33 0 9
-14 9 -23 0z"/>
<path d="M5352 2331 c-14 -38 -11 -49 7 -27 7 8 11 25 9 38 -3 20 -5 19 -16
-11z"/>
<path d="M5567 2383 c-4 -3 -7 -18 -7 -32 l1 -26 14 25 c8 14 14 28 15 33 0 9
-14 9 -23 0z"/>
<path d="M5592 2331 c-14 -38 -11 -49 7 -27 7 8 11 25 9 38 -3 20 -5 19 -16
-11z"/>
<path d="M5687 2383 c-4 -3 -7 -18 -7 -32 l1 -26 14 25 c8 14 14 28 15 33 0 9
-14 9 -23 0z"/>
<path d="M5712 2331 c-14 -38 -11 -49 7 -27 7 8 11 25 9 38 -3 20 -5 19 -16
-11z"/>
<path d="M2050 2300 c0 -5 6 -10 14 -10 8 0 18 5 21 10 3 6 -3 10 -14 10 -12
0 -21 -4 -21 -10z"/>
<path d="M2537 2344 c-8 -8 1 -24 14 -24 5 0 9 7 9 15 0 15 -12 20 -23 9z"/>
<path d="M2530 2260 c0 -5 9 -10 20 -10 11 0 20 5 20 10 0 6 -9 10 -20 10 -11
0 -20 -4 -20 -10z"/>
<path d="M4870 1686 c0 -9 5 -16 10 -16 6 0 10 4 10 9 0 6 -4 13 -10 16 -5 3
-10 -1 -10 -9z"/>
<path d="M5207 1763 c-4 -3 -7 -18 -7 -32 l1 -26 14 25 c8 14 14 28 15 33 0 9
-14 9 -23 0z"/>
<path d="M5232 1711 c-14 -38 -11 -49 7 -27 7 8 11 25 9 38 -3 20 -5 19 -16
-11z"/>
<path d="M5447 1763 c-4 -3 -7 -18 -7 -32 l1 -26 14 25 c8 14 14 28 15 33 0 9
-14 9 -23 0z"/>
<path d="M5472 1711 c-14 -38 -11 -49 7 -27 7 8 11 25 9 38 -3 20 -5 19 -16
-11z"/>
<path d="M5567 1763 c-4 -3 -7 -18 -7 -32 l1 -26 14 25 c8 14 14 28 15 33 0 9
-14 9 -23 0z"/>
<path d="M5592 1711 c-14 -38 -11 -49 7 -27 7 8 11 25 9 38 -3 20 -5 19 -16
-11z"/>
<path d="M1990 1680 c0 -5 6 -10 14 -10 8 0 18 5 21 10 3 6 -3 10 -14 10 -12
0 -21 -4 -21 -10z"/>
<path d="M2230 1680 c0 -5 6 -10 14 -10 8 0 18 5 21 10 3 6 -3 10 -14 10 -12
0 -21 -4 -21 -10z"/>
<path d="M2590 1715 c-11 -13 -11 -19 3 -33 20 -19 41 -5 35 24 -4 24 -22 28
-38 9z"/>
<path d="M4870 1066 c0 -9 5 -16 10 -16 6 0 10 4 10 9 0 6 -4 13 -10 16 -5 3
-10 -1 -10 -9z"/>
<path d="M5207 1143 c-4 -3 -7 -18 -7 -32 l1 -26 14 25 c8 14 14 28 15 33 0 9
-14 9 -23 0z"/>
<path d="M5232 1091 c-14 -38 -11 -49 7 -27 7 8 11 25 9 38 -3 20 -5 19 -16
-11z"/>
<path d="M5447 1143 c-4 -3 -7 -18 -7 -32 l1 -26 14 25 c8 14 14 28 15 33 0 9
-14 9 -23 0z"/>
<path d="M5472 1091 c-14 -38 -11 -49 7 -27 7 8 11 25 9 38 -3 20 -5 19 -16
-11z"/>
<path d="M5567 1143 c-4 -3 -7 -18 -7 -32 l1 -26 14 25 c8 14 14 28 15 33 0 9
-14 9 -23 0z"/>
<path d="M5592 1091 c-14 -38 -11 -49 7 -27 7 8 11 25 9 38 -3 20 -5 19 -16
-11z"/>
<path d="M2110 1060 c0 -5 6 -10 14 -10 8 0 18 5 21 10 3 6 -3 10 -14 10 -12
0 -21 -4 -21 -10z"/>
<path d="M2234 1096 c-8 -22 3 -49 19 -43 6 2 12 14 12 27 0 27 -22 39 -31 16z"/>
<path d="M2470 1095 c-11 -13 -11 -19 3 -33 20 -19 41 -5 35 24 -4 24 -22 28
-38 9z"/>
<path d="M2594 1096 c-8 -22 3 -49 19 -43 6 2 12 14 12 27 0 27 -22 39 -31 16z"/>
<path d="M3042 538 l-2 -58 33 1 c29 2 30 2 5 6 -25 4 -27 9 -31 56 l-3 52 -2
-57z"/>
<path d="M3142 548 c-28 -28 -1 -75 38 -63 14 4 20 15 20 35 0 36 -33 53 -58
28z m43 -28 c0 -29 -32 -41 -41 -16 -9 24 4 48 23 44 12 -2 18 -12 18 -28z"/>
<path d="M3235 548 c-2 -7 -3 -31 -2 -53 2 -43 25 -58 52 -35 19 16 10 30 -21
30 -30 0 -32 17 -3 22 12 2 26 13 30 26 7 20 5 22 -22 22 -16 0 -31 -6 -34
-12z m43 -16 c2 -7 -6 -12 -17 -12 -21 0 -27 11 -14 24 9 9 26 2 31 -12z m2
-62 c0 -5 -9 -10 -20 -10 -11 0 -20 5 -20 10 0 6 9 10 20 10 11 0 20 -4 20
-10z"/>
<path d="M4308 533 c6 -2 18 -2 25 0 6 3 1 5 -13 5 -14 0 -19 -2 -12 -5z"/>
<path d="M4308 503 c7 -3 16 -2 19 1 4 3 -2 6 -13 5 -11 0 -14 -3 -6 -6z"/>
<path d="M4408 533 c7 -3 16 -2 19 1 4 3 -2 6 -13 5 -11 0 -14 -3 -6 -6z"/>
<path d="M4598 533 c7 -3 16 -2 19 1 4 3 -2 6 -13 5 -11 0 -14 -3 -6 -6z"/>
<path d="M4598 503 c7 -3 16 -2 19 1 4 3 -2 6 -13 5 -11 0 -14 -3 -6 -6z"/>
</g>
</svg>
